<?xml version="1.0" encoding="UTF-8" standalone="no"?>
<!-- Created with Inkscape (http://www.inkscape.org/) -->

<svg
   width="210mm"
   height="297mm"
   viewBox="0 0 210 297"
   version="1.1"
   id="svg1"
   sodipodi:docname="icon.svg"
   inkscape:version="1.3.2 (091e20e, 2023-11-25, custom)"
   xmlns:inkscape="http://www.inkscape.org/namespaces/inkscape"
   xmlns:sodipodi="http://sodipodi.sourceforge.net/DTD/sodipodi-0.dtd"
   xmlns="http://www.w3.org/2000/svg"
   xmlns:svg="http://www.w3.org/2000/svg">
  <sodipodi:namedview
     id="namedview1"
     pagecolor="#ffffff"
     bordercolor="#666666"
     borderopacity="1.0"
     inkscape:showpageshadow="2"
     inkscape:pageopacity="0.0"
     inkscape:pagecheckerboard="0"
     inkscape:deskcolor="#d1d1d1"
     inkscape:document-units="mm"
     inkscape:zoom="0.70110129"
     inkscape:cx="261.01792"
     inkscape:cy="643.98683"
     inkscape:window-width="2400"
     inkscape:window-height="1271"
     inkscape:window-x="-9"
     inkscape:window-y="-9"
     inkscape:window-maximized="1"
     inkscape:current-layer="layer1" />
  <defs
     id="defs1">
    <inkscape:path-effect
       effect="taper_stroke"
       start_shape="center | center"
       end_shape="center | center"
       id="path-effect27"
       is_visible="true"
       lpeversion="1"
       stroke_width="4"
       subpath="1"
       attach_start="0.58246471"
       end_offset="0.56817985"
       start_smoothing="0.5"
       end_smoothing="0.5"
       jointype="extrapolated"
       miter_limit="100" />
    <inkscape:path-effect
       effect="taper_stroke"
       start_shape="center | center"
       end_shape="center | center"
       id="path-effect25"
       is_visible="true"
       lpeversion="1"
       stroke_width="4"
       subpath="1"
       attach_start="0.52452056"
       end_offset="0.53924568"
       start_smoothing="0.5"
       end_smoothing="0.5"
       jointype="extrapolated"
       miter_limit="100" />
    <inkscape:path-effect
       effect="taper_stroke"
       start_shape="center | center"
       end_shape="center | center"
       id="path-effect19"
       is_visible="true"
       lpeversion="1"
       stroke_width="4"
       subpath="1"
       attach_start="0.58246471"
       end_offset="0.56817985"
       start_smoothing="0.5"
       end_smoothing="0.5"
       jointype="extrapolated"
       miter_limit="100" />
    <inkscape:path-effect
       effect="taper_stroke"
       start_shape="center | center"
       end_shape="center | center"
       id="path-effect18"
       is_visible="true"
       lpeversion="1"
       stroke_width="4"
       subpath="1"
       attach_start="0.52452056"
       end_offset="0.53924568"
       start_smoothing="0.5"
       end_smoothing="0.5"
       jointype="extrapolated"
       miter_limit="100" />
    <inkscape:path-effect
       effect="skeletal"
       id="path-effect12"
       is_visible="true"
       lpeversion="1"
       pattern="#path7"
       copytype="repeated"
       prop_scale="0.42"
       scale_y_rel="false"
       spacing="0.1"
       normal_offset="0"
       tang_offset="0"
       prop_units="false"
       vertical_pattern="false"
       hide_knot="false"
       fuse_tolerance="0.5" />
    <inkscape:path-effect
       effect="skeletal"
       id="path-effect10"
       is_visible="true"
       lpeversion="1"
       pattern="#path7"
       copytype="repeated"
       prop_scale="0.42"
       scale_y_rel="false"
       spacing="0.1"
       normal_offset="0"
       tang_offset="0"
       prop_units="false"
       vertical_pattern="false"
       hide_knot="false"
       fuse_tolerance="0.5" />
    <inkscape:path-effect
       effect="skeletal"
       id="path-effect8"
       is_visible="true"
       lpeversion="1"
       pattern="#path7"
       copytype="repeated"
       prop_scale="0.42"
       scale_y_rel="false"
       spacing="0.1"
       normal_offset="0"
       tang_offset="0"
       prop_units="false"
       vertical_pattern="false"
       hide_knot="false"
       fuse_tolerance="0.5" />
  </defs>
  <g
     inkscape:label="Layer 1"
     inkscape:groupmode="layer"
     id="layer1">
    <circle
       style="fill:#94a3b8;fill-rule:evenodd;stroke-width:0.279131;fill-opacity:1"
       id="path21"
       cx="77.043037"
       cy="203.39803"
       r="38.121307"
       inkscape:export-filename="..\..\..\Users\Fred\Downloads\favicon.png"
       inkscape:export-xdpi="682.2851"
       inkscape:export-ydpi="682.2851" />
    <path
       id="path17"
       style="fill:#1e293b;fill-opacity:1;fill-rule:evenodd;stroke:none;stroke-width:0.375843"
       d="m 74.946873,182.52046 c -2.049087,0.22021 -4.065661,0.72151 -5.979981,1.48984 -0.09245,2.61443 0.148372,5.1684 0.716115,7.58383 -1.802896,1.01675 -3.342862,2.39405 -4.386529,4.08502 -0.03702,0.0534 -0.07374,0.10718 -0.110826,0.16068 -2.38416,-0.74252 -4.891146,-1.13044 -7.46404,-1.18082 -0.829967,1.93975 -1.352611,3.97312 -1.583062,6.02938 2.252401,1.30237 4.626706,2.26828 7.046168,2.9035 0.08616,2.16825 0.618006,4.35297 1.543279,6.29828 -1.851768,1.65205 -3.531309,3.54701 -4.981818,5.66713 1.153659,1.72504 2.563826,3.29583 4.215603,4.64169 1.201139,-0.60986 2.338935,-1.30744 3.402386,-2.09197 0.997919,-0.73585 1.91669,-1.5339 2.757303,-2.3854 1.784325,1.01893 3.882492,1.53141 6.038815,1.58951 0.603055,2.40112 1.506456,4.77934 2.691057,7.07824 2.052065,-0.19275 4.075003,-0.66748 5.999176,-1.40976 0.126818,-2.61334 -0.07946,-5.17114 -0.613007,-7.59552 1.879428,-1.02559 3.486216,-2.43763 4.564023,-4.18391 2.464915,0.59269 5.048306,0.83194 7.693757,0.73592 0.800065,-1.94869 1.294044,-3.98762 1.496002,-6.04596 -2.271117,-1.27068 -4.659531,-2.20456 -7.087708,-2.8083 -0.131236,-2.203 -0.706604,-4.41459 -1.67362,-6.37842 l 5.37e-4,8e-5 c 1.845596,-1.64199 3.514908,-3.52595 4.951074,-5.63293 -1.178606,-1.70983 -2.61304,-3.26177 -4.288353,-4.58558 -0.971104,0.51234 -1.899105,1.08301 -2.778411,1.71127 -1.215876,0.87042 -2.318448,1.83084 -3.308594,2.86626 -1.803989,-0.98685 -3.913963,-1.46882 -6.073683,-1.4982 -0.636205,-2.39373 -1.571026,-4.76039 -2.785682,-7.04376 z m 3.100147,14.54065 a 6.4946953,6.4946953 0 0 1 2.574872,0.9968 6.4946953,6.4946953 0 0 1 1.840652,8.99843 6.4946953,6.4946953 0 0 1 -8.998511,1.84118 6.4946953,6.4946953 0 0 1 -1.840653,-8.99843 6.4946953,6.4946953 0 0 1 6.42364,-2.83798 z" />
    <path
       style="fill:none;stroke:#000000;stroke-width:0.264583px;stroke-linecap:butt;stroke-linejoin:miter;stroke-opacity:1"
       d="m 121.33982,79.439007 c -9.08539,-12.024102 -23.499778,-21.69949 -38.121306,-21.69949 -14.621529,0 -29.03592,9.675388 -38.121309,21.69949"
       id="path2"
       sodipodi:nodetypes="cac" />
    <path
       style="fill:none;stroke:#000000;stroke-width:0.264583px;stroke-linecap:butt;stroke-linejoin:miter;stroke-opacity:1"
       d="M 121.33982,79.598512 C 112.25443,91.622614 97.840042,101.298 83.218514,101.298 c -14.621529,0 -29.03592,-9.675386 -38.121309,-21.699488"
       id="path3"
       sodipodi:nodetypes="cac" />
    <path
       style="fill:none;stroke:#000000;stroke-width:0.264583px;stroke-linecap:butt;stroke-linejoin:miter;stroke-opacity:1"
       d="M 59.29622,138.7824 57.561697,126.04574 H 53.679184 L 51.701401,138.7824 H 45.727217"
       id="path7"
       sodipodi:nodetypes="ccccc" />
    <path
       id="path8"
       style="fill:none;fill-rule:evenodd;stroke:#000000;stroke-width:0.264583"
       d="m 98.510979,133.49633 c 0.44726,-1.68052 0.697227,-3.43456 0.723591,-5.22942 -1.355638,-0.54725 -2.800176,-0.90265 -4.297861,-1.03045 -0.37174,0.67767 -0.695631,1.37283 -0.968478,2.08299 -0.376634,0.98301 -0.651679,1.97488 -0.831691,2.96723 -1.44258,0.12004 -2.869065,0.65546 -4.149198,1.47598 -1.302301,-1.15942 -2.769442,-2.18738 -4.368737,-3.05759 -1.118327,0.92423 -2.108639,2.00119 -2.935183,3.19513 0.959849,1.57171 2.09183,2.97847 3.362322,4.1772 -0.664719,1.29666 -1.034792,2.70322 -0.991954,4.10143 -0.0014,0.0457 -0.0024,0.0915 -0.0029,0.13727 -1.68862,0.48863 -3.311631,1.23342 -4.842727,2.20168 0.264886,1.46147 0.746337,2.85877 1.4086,4.15612 1.82839,-0.10864 3.597992,-0.46245 5.265731,-1.02781 0.891702,1.24034 2.051761,2.31756 3.349918,3.10143 -0.446991,1.68883 -0.698485,3.45366 -0.728176,5.26183 1.346884,0.56587 2.784412,0.94163 4.27683,1.09154 0.46905,-0.82422 0.866736,-1.67533 1.187148,-2.54872 0.300773,-0.81941 0.531009,-1.64472 0.694525,-2.47103 1.44347,-0.0936 2.874971,-0.60669 4.164247,-1.40901 1.285687,1.17661 2.738707,2.22356 4.326377,3.11454 1.13072,-0.90925 2.13518,-1.97297 2.9776,-3.15542 -0.93923,-1.58444 -2.05259,-3.00682 -3.30646,-4.22407 0.70625,-1.33152 1.10239,-2.78439 1.05815,-4.22835 1.67795,-0.60797 3.2885,-1.46962 4.80533,-2.55224 -0.28592,-1.45514 -0.78666,-2.84434 -1.46647,-4.13187 -1.82709,0.13451 -3.5925,0.5122 -5.25314,1.09945 -0.93166,-1.24327 -2.127551,-2.3193 -3.457411,-3.09784 z"
       inkscape:path-effect="#path-effect8"
       inkscape:original-d="M 106.42185,142.17883 A 12.453621,12.453621 0 0 1 93.968231,154.63245 12.453621,12.453621 0 0 1 81.51461,142.17883 12.453621,12.453621 0 0 1 93.968231,129.72521 12.453621,12.453621 0 0 1 106.42185,142.17883 Z"
       transform="matrix(1.0533712,0,0,1.0533712,-14.832237,-22.793131)" />
    <path
       id="path9"
       style="fill:none;fill-rule:evenodd;stroke:#000000;stroke-width:0.256599"
       d="m 90.160324,74.00716 c 1.068533,-1.304865 1.992278,-2.753725 2.734929,-4.328265 -0.977873,-1.026618 -2.111149,-1.919446 -3.382585,-2.632571 -0.599903,0.44949 -1.16456,0.933601 -1.690149,1.451406 -0.726587,0.717169 -1.367021,1.482894 -1.923727,2.287126 -1.322101,-0.472152 -2.796472,-0.571034 -4.25586,-0.359474 -0.685412,-1.545871 -1.569099,-3.041711 -2.632722,-4.451213 -1.358054,0.368008 -2.664268,0.922197 -3.872733,1.645336 0.217742,1.772737 0.653618,3.468775 1.295193,5.036614 -1.106723,0.878711 -1.99728,1.972576 -2.519847,3.224551 -0.01923,0.04003 -0.03839,0.07999 -0.05766,0.120027 -1.68712,-0.245257 -3.418958,-0.238002 -5.159189,0.0035 -0.351822,1.396841 -0.486652,2.823796 -0.421756,4.234962 1.658255,0.636856 3.362854,1.033641 5.062284,1.202766 0.290373,1.452762 0.883118,2.869038 1.715404,4.081582 -1.071617,1.312317 -2.001058,2.770105 -2.751974,4.355055 0.962683,1.039558 2.081612,1.947554 3.33954,2.678091 0.744564,-0.539899 1.436894,-1.132159 2.069906,-1.775062 0.59404,-0.603092 1.128144,-1.239682 1.603727,-1.903891 1.312279,0.495901 2.782138,0.616473 4.242312,0.424647 0.663853,1.554393 1.527463,3.061349 2.572485,4.484533 1.363003,-0.349809 2.676392,-0.886642 3.894292,-1.593266 -0.194451,-1.775705 -0.607618,-3.47808 -1.22709,-5.055615 1.157379,-0.892856 2.089515,-2.017164 2.629177,-3.310101 1.72552,0.135581 3.493189,0.02013 5.26666,-0.328052 0.330703,-1.399663 0.445259,-2.827211 0.360928,-4.236734 -1.66748,-0.613491 -3.377943,-0.987497 -5.079875,-1.134456 -0.324493,-1.471364 -0.94936,-2.900946 -1.811775,-4.121502 z" />
    <path
       id="path10"
       style="fill:none;fill-rule:evenodd;stroke:#000000;stroke-width:0.117611"
       d="m 87.695726,82.125493 a 5.5358183,5.5358183 0 0 1 -7.328723,2.753246 5.5358183,5.5358183 0 0 1 -2.753247,-7.328723 5.5358183,5.5358183 0 0 1 7.32872,-2.753237 5.5358183,5.5358183 0 0 1 2.75325,7.328714 z" />
    <g
       id="g20">
      <path
         style="fill:#1e293b;stroke:none;stroke-width:4;stroke-linecap:butt;stroke-linejoin:miter;stroke-opacity:1;stroke-dasharray:none;fill-rule:nonzero;fill-opacity:1"
         d="m 96.22,189.21174 c 5.32392,3.02389 9.61331,6.07774 13.31871,9.1425 3.46107,2.86265 5.62564,5.04379 5.62564,5.04379 0,0 -1.33868,-2.76487 -4.18616,-6.43423 -2.92929,-3.77481 -7.17382,-8.03687 -12.780837,-11.22914 -6.545738,-3.72244 -13.789116,-6.03612 -21.154311,-6.03612 -7.137103,0 -14.161162,2.17331 -20.543902,5.69421 -5.809072,3.20869 -10.208014,7.55534 -13.242641,11.41635 -2.9498,3.75309 -4.334766,6.58893 -4.334766,6.58893 0,0 2.211987,-2.25243 5.769854,-5.19366 3.79655,-3.13854 8.242633,-6.28121 13.739604,-9.30917 5.913231,-3.2619 12.275088,-5.19666 18.611851,-5.19666 6.539277,0 13.106711,2.06116 19.176958,5.5132 z"
         id="path15"
         sodipodi:nodetypes="cac"
         inkscape:path-effect="#path-effect18"
         inkscape:original-d="m 115.16435,203.39803 c -9.08539,-12.0241 -23.49978,-21.69949 -38.121308,-21.69949 -14.621529,0 -29.03592,9.67539 -38.121309,21.69949" />
      <path
         style="fill:#1e293b;stroke:none;stroke-width:4;stroke-linecap:butt;stroke-linejoin:miter;stroke-opacity:1;stroke-dasharray:none;fill-rule:nonzero;fill-opacity:1"
         d="m 95.773905,222.51761 c 6.411645,-3.22378 11.272095,-7.81156 14.617815,-11.92058 3.25298,-3.99511 4.77263,-7.03949 4.77263,-7.03949 0,0 -2.35013,2.46181 -6.19489,5.6301 -4.07067,3.35446 -8.974159,6.7427 -14.989581,9.75485 -5.435003,2.72733 -11.194467,4.31454 -16.936837,4.31454 -5.938831,0 -11.897238,-1.69822 -17.49307,-4.59823 -5.842556,-3.0222 -10.594986,-6.33153 -14.574119,-9.61485 -3.749479,-3.09383 -6.05412,-5.48641 -6.05412,-5.48641 0,0 1.475331,2.97541 4.627631,6.89114 3.242589,4.02788 7.949122,8.53714 14.160106,11.76154 6.052576,3.13671 12.644661,5.04681 19.333572,5.04681 6.467638,0 12.845958,-1.78632 18.730863,-4.73942 z"
         id="path16"
         sodipodi:nodetypes="cac"
         inkscape:path-effect="#path-effect19"
         inkscape:original-d="m 115.16435,203.55754 c -9.08539,12.0241 -23.49978,21.69949 -38.121308,21.69949 -14.621529,0 -29.03592,-9.67539 -38.121309,-21.69949" />
    </g>
    <path
       id="path19"
       style="fill:#000000;fill-opacity:1;fill-rule:evenodd;stroke:none;stroke-width:0.357378"
       d="m 141.41386,119.19234 c 1.4882,-1.81736 2.77474,-3.83526 3.80907,-6.02819 -1.36193,-1.42983 -2.9403,-2.67329 -4.71109,-3.66651 -0.83552,0.62603 -1.62194,1.30027 -2.35396,2.02146 -1.01195,0.99881 -1.90391,2.06528 -2.67927,3.18537 -1.84135,-0.65758 -3.89478,-0.7953 -5.92734,-0.50066 -0.95461,-2.15301 -2.18536,-4.23634 -3.66672,-6.19941 -1.89143,0.51253 -3.71066,1.28437 -5.39375,2.29153 0.30326,2.46898 0.91033,4.83114 1.80388,7.01475 -1.54139,1.22382 -2.78171,2.7473 -3.50951,4.49099 -0.0268,0.0557 -0.0535,0.11137 -0.0803,0.16715 -2.34974,-0.34157 -4.76176,-0.33147 -7.18546,0.005 -0.49,1.94545 -0.67779,3.93283 -0.5874,5.89824 2.30953,0.88698 4.68361,1.43961 7.05049,1.67515 0.40442,2.02334 1.22996,3.99586 2.38913,5.68463 -1.4925,1.82772 -2.78697,3.85805 -3.83281,6.06548 1.34077,1.44785 2.89916,2.71247 4.65114,3.72992 1.03699,-0.75194 2.00123,-1.57681 2.88286,-2.47222 0.82735,-0.83993 1.57122,-1.72656 2.23359,-2.65163 1.82768,0.69065 3.87482,0.85858 5.90848,0.59141 0.92458,2.16491 2.12737,4.2637 3.58282,6.24584 1.89833,-0.48719 3.72755,-1.23486 5.42378,-2.21902 -0.27082,-2.4731 -0.84626,-4.84409 -1.70903,-7.0412 1.61194,-1.24354 2.91017,-2.80941 3.66178,-4.61014 2.40322,0.18883 4.86514,0.028 7.33514,-0.4569 0.46059,-1.94938 0.62013,-3.9376 0.50268,-5.9007 -2.32238,-0.85444 -4.70463,-1.37535 -7.07499,-1.58002 -0.45194,-2.04924 -1.32222,-4.04028 -2.52335,-5.74022 z" />
    <path
       id="path20"
       style="fill:#5ed4aa;fill-opacity:1;fill-rule:evenodd;stroke:none;stroke-width:0.163802"
       d="m 137.98129,130.49915 a 7.7100073,7.7100073 0 0 1 -10.20707,3.83459 7.7100073,7.7100073 0 0 1 -3.83458,-10.20709 7.7100073,7.7100073 0 0 1 10.20707,-3.83456 7.7100073,7.7100073 0 0 1 3.83458,10.20706 z" />
    <circle
       style="fill:#1e293b;fill-opacity:1;fill-rule:evenodd;stroke-width:0.279131"
       id="circle21"
       cx="161.37177"
       cy="203.39803"
       r="38.121307" />
    <path
       id="path22"
       style="fill:#94a3b8;fill-opacity:1;fill-rule:evenodd;stroke:none;stroke-width:0.375843"
       d="m 159.2756,182.52046 c -2.04909,0.22021 -4.06566,0.72151 -5.97998,1.48984 -0.0925,2.61443 0.14837,5.1684 0.71611,7.58383 -1.8029,1.01675 -3.34286,2.39405 -4.38653,4.08502 -0.037,0.0534 -0.0737,0.10718 -0.11082,0.16068 -2.38416,-0.74252 -4.89115,-1.13044 -7.46404,-1.18082 -0.82997,1.93975 -1.35262,3.97312 -1.58307,6.02938 2.2524,1.30237 4.62671,2.26828 7.04617,2.9035 0.0862,2.16825 0.61801,4.35297 1.54328,6.29828 -1.85177,1.65205 -3.53131,3.54701 -4.98182,5.66713 1.15366,1.72504 2.56383,3.29583 4.21561,4.64169 1.20113,-0.60986 2.33893,-1.30744 3.40238,-2.09197 0.99792,-0.73585 1.91669,-1.5339 2.7573,-2.3854 1.78433,1.01893 3.8825,1.53141 6.03882,1.58951 0.60305,2.40112 1.50646,4.77934 2.69106,7.07824 2.05206,-0.19275 4.075,-0.66748 5.99917,-1.40976 0.12682,-2.61334 -0.0795,-5.17114 -0.613,-7.59552 1.87942,-1.02559 3.48621,-2.43763 4.56402,-4.18391 2.46491,0.59269 5.0483,0.83194 7.69376,0.73592 0.80006,-1.94869 1.29404,-3.98762 1.496,-6.04596 -2.27112,-1.27068 -4.65953,-2.20456 -7.08771,-2.8083 -0.13124,-2.203 -0.7066,-4.41459 -1.67362,-6.37842 l 5.4e-4,8e-5 c 1.84559,-1.64199 3.5149,-3.52595 4.95107,-5.63293 -1.17861,-1.70983 -2.61304,-3.26177 -4.28835,-4.58558 -0.97111,0.51234 -1.89911,1.08301 -2.77841,1.71127 -1.21588,0.87042 -2.31845,1.83084 -3.3086,2.86626 -1.80399,-0.98685 -3.91396,-1.46882 -6.07368,-1.4982 -0.63621,-2.39373 -1.57103,-4.76039 -2.78568,-7.04376 z m 3.10014,14.54065 a 6.4946953,6.4946953 0 0 1 2.57488,0.9968 6.4946953,6.4946953 0 0 1 1.84065,8.99843 6.4946953,6.4946953 0 0 1 -8.99851,1.84118 6.4946953,6.4946953 0 0 1 -1.84066,-8.99843 6.4946953,6.4946953 0 0 1 6.42364,-2.83798 z" />
    <path
       style="fill:#94a3b8;fill-opacity:1;fill-rule:nonzero;stroke:none;stroke-width:4;stroke-linecap:butt;stroke-linejoin:miter;stroke-dasharray:none;stroke-opacity:1"
       d="m 96.22,189.21174 c 5.32392,3.02389 9.61331,6.07774 13.31871,9.1425 3.46107,2.86265 5.62564,5.04379 5.62564,5.04379 0,0 -1.33868,-2.76487 -4.18616,-6.43423 -2.92929,-3.77481 -7.17382,-8.03687 -12.780837,-11.22914 -6.545738,-3.72244 -13.789116,-6.03612 -21.154311,-6.03612 -7.137103,0 -14.161162,2.17331 -20.543902,5.69421 -5.809072,3.20869 -10.208014,7.55534 -13.242641,11.41635 -2.9498,3.75309 -4.334766,6.58893 -4.334766,6.58893 0,0 2.211987,-2.25243 5.769854,-5.19366 3.79655,-3.13854 8.242633,-6.28121 13.739604,-9.30917 5.913231,-3.2619 12.275088,-5.19666 18.611851,-5.19666 6.539277,0 13.106711,2.06116 19.176958,5.5132 z"
       id="path23"
       sodipodi:nodetypes="cac"
       inkscape:path-effect="#path-effect25"
       inkscape:original-d="m 115.16435,203.39803 c -9.08539,-12.0241 -23.49978,-21.69949 -38.121308,-21.69949 -14.621529,0 -29.03592,9.67539 -38.121309,21.69949"
       transform="translate(84.328723)" />
    <path
       style="fill:#94a3b8;fill-opacity:1;fill-rule:nonzero;stroke:none;stroke-width:4;stroke-linecap:butt;stroke-linejoin:miter;stroke-dasharray:none;stroke-opacity:1"
       d="m 95.773905,222.51761 c 6.411645,-3.22378 11.272095,-7.81156 14.617815,-11.92058 3.25298,-3.99511 4.77263,-7.03949 4.77263,-7.03949 0,0 -2.35013,2.46181 -6.19489,5.6301 -4.07067,3.35446 -8.974159,6.7427 -14.989581,9.75485 -5.435003,2.72733 -11.194467,4.31454 -16.936837,4.31454 -5.938831,0 -11.897238,-1.69822 -17.49307,-4.59823 -5.842556,-3.0222 -10.594986,-6.33153 -14.574119,-9.61485 -3.749479,-3.09383 -6.05412,-5.48641 -6.05412,-5.48641 0,0 1.475331,2.97541 4.627631,6.89114 3.242589,4.02788 7.949122,8.53714 14.160106,11.76154 6.052576,3.13671 12.644661,5.04681 19.333572,5.04681 6.467638,0 12.845958,-1.78632 18.730863,-4.73942 z"
       id="path24"
       sodipodi:nodetypes="cac"
       inkscape:path-effect="#path-effect27"
       inkscape:original-d="m 115.16435,203.55754 c -9.08539,12.0241 -23.49978,21.69949 -38.121308,21.69949 -14.621529,0 -29.03592,-9.67539 -38.121309,-21.69949"
       transform="translate(84.328723)" />
  </g>
</svg>
